<svg width="92" height="92" viewBox="0 0 92 92" fill="none" xmlns="http://www.w3.org/2000/svg">
<g filter="url(#filter0_d_37_2)">
<path fill-rule="evenodd" clip-rule="evenodd" d="M20.9481 66.0756L24.9847 70.358L29.2672 66.3214L31.4084 64.3031L35.4451 68.5856L39.4817 72.868L43.7642 68.8314L47.8008 73.1139L52.0833 69.0773L56.1199 73.3597L60.4024 69.3231L64.6848 65.2865L68.9673 61.2499L73.2498 57.2132L77.5322 53.1766L73.4956 48.8941L77.7781 44.8575L73.7415 40.575L78.0239 36.5384L73.9873 32.2559L69.9507 27.9735L65.9141 23.691L61.8774 19.4085L57.8408 15.1261L53.5583 19.1627L49.5217 14.8802L45.2392 18.9168L41.2026 14.6344L36.9202 18.671L32.6377 22.7076L28.3552 26.7442L24.0727 30.7809L19.7903 34.8175L23.8269 39.1L28.1094 35.0633L32.3918 31.0267L36.6743 26.9901L40.9568 22.9535L45.2392 18.9168L49.2759 23.1993L53.5583 19.1627L57.595 23.4452L61.6316 27.7276L65.6682 32.0101L69.7048 36.2926L73.7415 40.575L69.459 44.6117L73.4956 48.8941L69.2131 52.9308L64.9307 56.9674L60.6482 61.004L56.3657 65.0406L52.0833 69.0773L48.0466 64.7948L43.7642 68.8314L39.7275 64.5489L35.6909 60.2665L37.8321 58.2482L42.1146 54.2115L38.078 49.9291L33.7955 53.9657L29.7589 49.6832L27.6177 51.7015L23.581 47.419L19.2986 51.4557L23.3352 55.7381L21.194 57.7565L25.2306 62.0389L20.9481 66.0756Z" fill="#D7D954"/>
</g>
<defs>
<filter id="filter0_d_37_2" x="19.2986" y="14.6344" width="61.7254" height="61.7254" filterUnits="userSpaceOnUse" color-interpolation-filters="sRGB">
<feFlood flood-opacity="0" result="BackgroundImageFix"/>
<feColorMatrix in="SourceAlpha" type="matrix" values="0 0 0 0 0 0 0 0 0 0 0 0 0 0 0 0 0 0 127 0" result="hardAlpha"/>
<feOffset dx="3" dy="3"/>
<feComposite in2="hardAlpha" operator="out"/>
<feColorMatrix type="matrix" values="0 0 0 0 0.843137 0 0 0 0 0.85098 0 0 0 0 0.329412 0 0 0 0.43 0"/>
<feBlend mode="normal" in2="BackgroundImageFix" result="effect1_dropShadow_37_2"/>
<feBlend mode="normal" in="SourceGraphic" in2="effect1_dropShadow_37_2" result="shape"/>
</filter>
</defs>
</svg>
